<svg width="44" height="44" viewBox="0 0 44 44" fill="none" xmlns="http://www.w3.org/2000/svg">
<path d="M1.16817 43.5339C1.28721 43.6151 1.42804 43.6584 1.57215 43.6581C1.65976 43.6577 1.74657 43.6415 1.82839 43.6102L10.851 40.1414L19.8728 43.6117H19.8935C20.045 43.6707 20.2131 43.6707 20.3646 43.6117H20.3853L29.6641 40.0429C29.9404 39.937 30.1227 39.6715 30.1223 39.3755L30.1223 31.4529L30.1523 31.4343L31.7997 33.1559C31.6557 33.6488 31.7951 34.1809 32.1623 34.5398L38.7231 41.1014C39.2805 41.6587 40.1841 41.6587 40.7416 41.1014L43.2654 38.5776C43.8227 38.0201 43.8227 37.1165 43.2654 36.5591L36.7046 29.9975C36.3476 29.6438 35.8309 29.504 35.3442 29.6292L33.664 27.8791C36.0846 23.816 35.4349 18.6278 32.0873 15.287C31.4962 14.6995 30.8364 14.1852 30.1223 13.7553V1.54654C30.122 1.31155 30.0061 1.09177 29.8123 0.958868C29.6185 0.825962 29.3717 0.796963 29.1524 0.881325L20.1298 4.3516L11.1072 0.881325C11.07 0.871807 11.032 0.865361 10.9937 0.862054C10.9518 0.849254 10.9088 0.840647 10.8652 0.836358C10.8602 0.836358 10.8567 0.836358 10.8524 0.836358H10.8417C10.7918 0.840801 10.7425 0.850612 10.6947 0.865622C10.6615 0.868656 10.6285 0.874143 10.5962 0.882039L1.31734 4.45081C1.04171 4.55615 0.859316 4.82024 0.858399 5.11532L0.858399 42.9443C0.858024 43.1799 0.973937 43.4005 1.16817 43.5339ZM28.6948 38.8859L20.8435 41.9058L20.8435 32.1837C23.3603 33.2087 26.1781 33.2087 28.6948 32.1837L28.6948 38.8859ZM42.2562 37.5669L39.7323 40.0893L33.1708 33.5299L35.6946 31.0061L42.2562 37.5669ZM34.1908 30.4893L32.674 32.0053L31.3357 30.6042C31.5955 30.3901 31.8463 30.1624 32.088 29.9211C32.3532 29.654 32.6038 29.3728 32.8389 29.0789L34.1908 30.4893ZM33.6911 22.6023C33.6913 26.8588 30.6847 30.5227 26.5101 31.3532C22.3354 32.1838 18.1554 29.9497 16.5265 26.0172C14.8975 22.0847 16.2733 17.5492 19.8124 15.1845C23.3516 12.8197 28.0683 13.2843 31.0781 16.2941C32.7566 17.9635 33.6975 20.235 33.6911 22.6023ZM28.6948 13.023C26.1783 11.9971 23.3601 11.9971 20.8435 13.023V5.60638L28.6948 2.5872V13.023ZM2.28591 5.60638L10.1372 2.5872L10.1372 26.528C10.1372 26.9222 10.4568 27.2417 10.851 27.2417C11.2452 27.2417 11.5647 26.9222 11.5647 26.528L11.5647 2.58648L19.416 5.60638V13.7553C18.702 14.1847 18.0423 14.6985 17.4511 15.2856C13.4099 19.3272 13.4099 25.8795 17.4511 29.9211C18.0424 30.5085 18.7021 31.0228 19.416 31.4529L19.416 41.9058L11.5647 38.8866V31.5242C11.5647 31.13 11.2452 30.8105 10.851 30.8105C10.4568 30.8105 10.1372 31.13 10.1372 31.5242V38.8859L2.28591 41.9058L2.28591 5.60638Z" fill="url(#paint0_linear)"/>
<defs>
<linearGradient id="paint0_linear" x1="22.2709" y1="0.83374" x2="22.2709" y2="43.6581" gradientUnits="userSpaceOnUse">
<stop stop-color="#3632CD"/>
<stop offset="1" stop-color="#2CCCA6"/>
</linearGradient>
</defs>
</svg>
